<?xml version="1.0" encoding="UTF-8"?>
<svg width="512" height="512" viewBox="0 0 24 24" xmlns="http://www.w3.org/2000/svg">
    <path fill="#4B91F1" d="M17.5 19H3.5A3.5 3.5 0 0 1 0 15.5c0-1.41.84-2.69 2.14-3.24A3.5 3.5 0 0 1 5.5 9c.86 0 1.71.33 2.36.94a5.5 5.5 0 0 1 10.28 0c.65-.61 1.5-.94 2.36-.94a3.5 3.5 0 0 1 3.36 3.26A3.5 3.5 0 0 1 21 15.5a3.5 3.5 0 0 1-3.5 3.5zM6 6.5a2 2 0 1 1 4 0 2 2 0 0 1-4 0zm7-4a1.5 1.5 0 1 1 3 0 1.5 1.5 0 0 1-3 0zm-7 14a1 1 0 1 1 2 0 1 1 0 0 1-2 0zm5 0a1 1 0 1 1 2 0 1 1 0 0 1-2 0zm5 0a1 1 0 1 1 2 0 1 1 0 0 1-2 0z"/>
</svg>
